<svg width="16" height="16" viewBox="0 0 16 16" fill="none" xmlns="http://www.w3.org/2000/svg">
<path fill-rule="evenodd" clip-rule="evenodd" d="M3 2C2.17157 2 1.5 2.67157 1.5 3.5V12.5C1.5 13.3284 2.17157 14 3 14H12C12.8284 14 13.5 13.3284 13.5 12.5V12H14.5V12.5C14.5 13.8807 13.3807 15 12 15H3C1.61929 15 0.5 13.8807 0.5 12.5V3.5C0.5 2.11929 1.61929 1 3 1H12C13.3807 1 14.5 2.11929 14.5 3.5V4H13.5V3.5C13.5 2.67157 12.8284 2 12 2H3Z" fill="black"/>
<path d="M8.1 11C6.78799 11 6 9.846 6 8.00198V7.99405C6 6.15003 6.78799 5 8.1 5C9.40807 5 10.2 6.15003 10.2 7.99405V8.00198C10.2 9.846 9.40807 11 8.1 11ZM8.1 10.2624C8.86041 10.2624 9.30957 9.40185 9.30957 8.00198V7.99405C9.30957 6.59418 8.86041 5.74157 8.1 5.74157C7.33565 5.74157 6.89043 6.59418 6.89043 7.99405V8.00198C6.89043 9.40185 7.33565 10.2624 8.1 10.2624Z" fill="black"/>
<path d="M13.6156 11C12.3036 11 11.5156 9.846 11.5156 8.00198V7.99405C11.5156 6.15003 12.3036 5 13.6156 5C14.9237 5 15.7156 6.15003 15.7156 7.99405V8.00198C15.7156 9.846 14.9237 11 13.6156 11ZM13.6156 10.2624C14.376 10.2624 14.8252 9.40185 14.8252 8.00198V7.99405C14.8252 6.59418 14.376 5.74157 13.6156 5.74157C12.8513 5.74157 12.4061 6.59418 12.4061 7.99405V8.00198C12.4061 9.40185 12.8513 10.2624 13.6156 10.2624Z" fill="black"/>
<path d="M5 11.25C5 11.6642 4.66421 12 4.25 12C3.83579 12 3.5 11.6642 3.5 11.25C3.5 10.8358 3.83579 10.5 4.25 10.5C4.66421 10.5 5 10.8358 5 11.25Z" fill="black"/>
</svg>
