<svg width="16" height="16" viewBox="0 0 16 16" fill="none" xmlns="http://www.w3.org/2000/svg">
<path fill-rule="evenodd" clip-rule="evenodd" d="M1 3.5C1 2.11929 2.11929 1 3.5 1H12.5C13.8807 1 15 2.11929 15 3.5V12.5C15 13.8807 13.8807 15 12.5 15H3.5C2.11929 15 1 13.8807 1 12.5V3.5ZM3.5 2C2.67157 2 2 2.67157 2 3.5V12.5C2 13.3284 2.67157 14 3.5 14H12.5C13.3284 14 14 13.3284 14 12.5V3.5C14 2.67157 13.3284 2 12.5 2H3.5ZM7.31238 3.10957C7.52801 3.28207 7.56297 3.59672 7.39046 3.81235L5.59832 6.05253C5.30191 6.42303 4.75002 6.45562 4.41208 6.12257L3.463 5.18725C3.26632 4.99342 3.26401 4.67684 3.45784 4.48016C3.65167 4.28348 3.96825 4.28117 4.16493 4.475L4.95602 5.25462L6.60959 3.18765C6.7821 2.97202 7.09675 2.93706 7.31238 3.10957ZM8.5 5C8.5 4.72386 8.72386 4.5 9 4.5H12C12.2761 4.5 12.5 4.72386 12.5 5C12.5 5.27614 12.2761 5.5 12 5.5H9C8.72386 5.5 8.5 5.27614 8.5 5ZM7.31238 6.30957C7.52801 6.48207 7.56297 6.79672 7.39046 7.01235L5.59832 9.25253C5.30191 9.62303 4.75002 9.65562 4.41208 9.32257L3.463 8.38725C3.26632 8.19342 3.26401 7.87684 3.45784 7.68016C3.65167 7.48348 3.96825 7.48117 4.16493 7.675L4.95602 8.45462L6.60959 6.38765C6.7821 6.17202 7.09675 6.13706 7.31238 6.30957ZM8.5 8C8.5 7.72386 8.72386 7.5 9 7.5H12C12.2761 7.5 12.5 7.72386 12.5 8C12.5 8.27614 12.2761 8.5 12 8.5H9C8.72386 8.5 8.5 8.27614 8.5 8ZM7.31238 9.60957C7.52801 9.78207 7.56297 10.0967 7.39046 10.3123L5.59832 12.5525C5.30191 12.923 4.75002 12.9556 4.41208 12.6226L3.463 11.6872C3.26632 11.4934 3.26401 11.1768 3.45784 10.9802C3.65167 10.7835 3.96825 10.7812 4.16493 10.975L4.95602 11.7546L6.60959 9.68765C6.7821 9.47202 7.09675 9.43706 7.31238 9.60957ZM8.5 11C8.5 10.7239 8.72386 10.5 9 10.5H12C12.2761 10.5 12.5 10.7239 12.5 11C12.5 11.2761 12.2761 11.5 12 11.5H9C8.72386 11.5 8.5 11.2761 8.5 11Z" fill="black"/>
</svg>
