<svg width="16" height="16" viewBox="0 0 16 16" fill="none" xmlns="http://www.w3.org/2000/svg">
<path fill-rule="evenodd" clip-rule="evenodd" d="M12.5 2H3.5C2.67157 2 2 2.67157 2 3.5V12.5C2 13.3284 2.67157 14 3.5 14H12.5C13.3284 14 14 13.3284 14 12.5V3.5C14 2.67157 13.3284 2 12.5 2ZM3.5 1C2.11929 1 1 2.11929 1 3.5V12.5C1 13.8807 2.11929 15 3.5 15H12.5C13.8807 15 15 13.8807 15 12.5V3.5C15 2.11929 13.8807 1 12.5 1H3.5Z" fill="black"/>
<path d="M7.71208 11.8V11.0672C6.60781 10.9795 5.73487 10.3476 5.69995 9.30325V9.29886L6.60781 9.29447V9.30325C6.68201 9.81225 7.00936 10.194 7.71208 10.2686V8.35105L7.54185 8.30717C6.43758 8.04828 5.83962 7.54805 5.83962 6.66167V6.6529C5.83962 5.67438 6.61654 5.02495 7.71208 4.93719V4.20001H8.22711V4.93719C9.30955 5.02934 10.0908 5.70509 10.1301 6.69239V6.69678L9.22662 6.70117V6.69239C9.16552 6.14828 8.78143 5.81479 8.22711 5.73581V7.57438L8.42352 7.62264C9.57144 7.89031 10.2 8.36422 10.2 9.29447V9.30325C10.2 10.3739 9.33138 10.9838 8.22711 11.0672V11.8H7.71208ZM6.76057 6.59147C6.76057 6.982 7.02245 7.27599 7.71208 7.45151V5.73581C7.08792 5.81918 6.76057 6.18338 6.76057 6.58269V6.59147ZM9.27464 9.38223C9.27464 8.93027 9.03021 8.6626 8.22711 8.46953V10.273C8.96474 10.2116 9.27464 9.85613 9.27464 9.39101V9.38223Z" fill="black"/>
</svg>
