<svg width="16" height="16" viewBox="0 0 16 16" fill="none" xmlns="http://www.w3.org/2000/svg">
<path fill-rule="evenodd" clip-rule="evenodd" d="M3 2C2.17157 2 1.5 2.67157 1.5 3.5V12.5C1.5 13.3284 2.17157 14 3 14H12C12.8284 14 13.5 13.3284 13.5 12.5V12H14.5V12.5C14.5 13.8807 13.3807 15 12 15H3C1.61929 15 0.5 13.8807 0.5 12.5V3.5C0.5 2.11929 1.61929 1 3 1H12C13.3807 1 14.5 2.11929 14.5 3.5V4H13.5V3.5C13.5 2.67157 12.8284 2 12 2H3Z" fill="black"/>
<path d="M8.02452 5C9.14323 5 10.2 5.80899 10.2 7.91077V7.9187C10.2 9.8579 9.37548 11 7.99355 11C7.00258 11 6.2671 10.4052 6.08516 9.54065L6.07355 9.49306H6.93677L6.94839 9.53272C7.1071 9.96894 7.47097 10.2465 7.99355 10.2465C8.93419 10.2465 9.32903 9.30668 9.37161 8.16457C9.37161 8.12095 9.37548 8.07733 9.37548 8.03371H9.29806C9.09677 8.49372 8.58968 8.90218 7.83097 8.90218C6.76645 8.90218 6 8.09319 6 6.99868V6.99075C6 5.84071 6.85161 5 8.02452 5ZM8.02065 8.1844C8.69032 8.1844 9.20516 7.68473 9.20516 6.99471V6.99075C9.20516 6.2928 8.69032 5.74554 8.03226 5.74554C7.37806 5.74554 6.85548 6.2809 6.85548 6.96695V6.97488C6.85548 7.6768 7.3471 8.1844 8.02065 8.1844Z" fill="black"/>
<path d="M13.5206 5C14.6393 5 15.6961 5.80899 15.6961 7.91077V7.9187C15.6961 9.8579 14.8716 11 13.4896 11C12.4987 11 11.7632 10.4052 11.5813 9.54065L11.5696 9.49306H12.4329L12.4445 9.53272C12.6032 9.96894 12.9671 10.2465 13.4896 10.2465C14.4303 10.2465 14.8251 9.30668 14.8677 8.16457C14.8677 8.12095 14.8716 8.07733 14.8716 8.03371H14.7942C14.5929 8.49372 14.0858 8.90218 13.3271 8.90218C12.2625 8.90218 11.4961 8.09319 11.4961 6.99868V6.99075C11.4961 5.84071 12.3477 5 13.5206 5ZM13.5167 8.1844C14.1864 8.1844 14.7013 7.68473 14.7013 6.99471V6.99075C14.7013 6.2928 14.1864 5.74554 13.5284 5.74554C12.8742 5.74554 12.3516 6.2809 12.3516 6.96695V6.97488C12.3516 7.6768 12.8432 8.1844 13.5167 8.1844Z" fill="black"/>
</svg>
