<svg width="16" height="16" viewBox="0 0 16 16" fill="none" xmlns="http://www.w3.org/2000/svg">
<path fill-rule="evenodd" clip-rule="evenodd" d="M1 4.5C1 3.11929 2.11929 2 3.5 2H12.5C13.8807 2 15 3.11929 15 4.5V12C15 13.3807 13.8807 14.5 12.5 14.5H3.5C2.11929 14.5 1 13.3807 1 12L1 4.5ZM2.14062 3.86506L7.58639 8.10442C7.76605 8.24194 8.01574 8.24169 8.19514 8.10369L8.19998 8.09997L8.2 8.1L13.856 3.85797C13.6155 3.35075 13.0987 3 12.5 3H3.5C2.89852 3 2.37972 3.35402 2.14062 3.86506ZM14 5L8.80216 8.89838C8.26318 9.31106 7.514 9.31037 6.97572 8.89631L6.97343 8.89455L6.97344 8.89454L2 5.02288L2 12C2 12.8284 2.67157 13.5 3.5 13.5H12.5C13.3284 13.5 14 12.8284 14 12V5Z" fill="black"/>
</svg>
