<svg width="16" height="16" viewBox="0 0 16 16" fill="none" xmlns="http://www.w3.org/2000/svg">
<path fill-rule="evenodd" clip-rule="evenodd" d="M12.5 2H3.5C2.67157 2 2 2.67157 2 3.5V12.5C2 13.3284 2.67157 14 3.5 14H12.5C13.3284 14 14 13.3284 14 12.5V3.5C14 2.67157 13.3284 2 12.5 2ZM3.5 1C2.11929 1 1 2.11929 1 3.5V12.5C1 13.8807 2.11929 15 3.5 15H12.5C13.8807 15 15 13.8807 15 12.5V3.5C15 2.11929 13.8807 1 12.5 1H3.5Z" fill="black"/>
<path d="M7.5818 6.45129C7.5818 6.88867 7.4634 7.24122 7.22661 7.50895C6.98982 7.77667 6.67791 7.91054 6.2909 7.91054C5.90643 7.91054 5.59453 7.77667 5.35519 7.50895C5.1184 7.24122 5 6.88867 5 6.45129C5 6.01657 5.1184 5.66667 5.35519 5.40159C5.59453 5.13386 5.90643 5 6.2909 5C6.67791 5 6.98982 5.13386 7.22661 5.40159C7.4634 5.66667 7.5818 6.01657 7.5818 6.45129ZM5.97008 6.96024C6.04901 7.08482 6.15595 7.14712 6.2909 7.14712C6.42584 7.14712 6.53278 7.08482 6.61171 6.96024C6.69064 6.83565 6.73011 6.666 6.73011 6.45129C6.73011 6.23393 6.69064 6.06428 6.61171 5.94235C6.53533 5.81776 6.42839 5.75547 6.2909 5.75547C6.15595 5.75547 6.04901 5.81776 5.97008 5.94235C5.89115 6.06693 5.85169 6.23658 5.85169 6.45129C5.85169 6.666 5.89115 6.83565 5.97008 6.96024ZM6.68428 10.8688H5.60726L7.68873 7.86282L9.34628 5.13121H10.4195L8.30363 8.16103L6.68428 10.8688ZM11 9.54473C11 9.97946 10.8816 10.3307 10.6448 10.5984C10.408 10.8661 10.0961 11 9.7091 11C9.32463 11 9.014 10.8661 8.77721 10.5984C8.54042 10.3307 8.42202 9.97946 8.42202 9.54473C8.42202 9.11001 8.54042 8.75878 8.77721 8.49105C9.014 8.22333 9.32463 8.08946 9.7091 8.08946C10.0961 8.08946 10.408 8.22333 10.6448 8.49105C10.8816 8.75613 11 9.10736 11 9.54473ZM9.38829 10.0497C9.46722 10.1743 9.57416 10.2366 9.7091 10.2366C9.84405 10.2366 9.95099 10.1743 10.0299 10.0497C10.1088 9.92512 10.1483 9.75547 10.1483 9.54076C10.1483 9.32339 10.1088 9.15374 10.0299 9.03181C9.95353 8.90987 9.84659 8.84891 9.7091 8.84891C9.57416 8.84891 9.46722 8.9112 9.38829 9.03578C9.30936 9.15772 9.26989 9.32604 9.26989 9.54076C9.26989 9.75547 9.30936 9.92512 9.38829 10.0497Z" fill="black"/>
</svg>
