<svg width="16" height="16" viewBox="0 0 16 16" fill="none" xmlns="http://www.w3.org/2000/svg">
<path fill-rule="evenodd" clip-rule="evenodd" d="M2.5 3C1.67157 3 1 3.67157 1 4.5V11.5C1 12.3284 1.67157 13 2.5 13H9.5C10.3284 13 11 12.3284 11 11.5V11H12V11.5C12 12.8807 10.8807 14 9.5 14H2.5C1.11929 14 0 12.8807 0 11.5V4.5C0 3.11929 1.11929 2 2.5 2H9.5C10.8807 2 12 3.11929 12 4.5V5H11V4.5C11 3.67157 10.3284 3 9.5 3H2.5Z" fill="black"/>
<path d="M3.8 10L5.82882 5H6.77118L8.8 10H7.881L7.37477 8.64865H5.22523L4.71511 10H3.8ZM6.26495 5.87665L5.45888 8.02495H7.14112L6.33115 5.87665H6.26495Z" fill="black"/>
<path d="M10.6816 10C10.0022 10 9.5 9.552 9.5 8.85156V8.84444C9.5 8.15467 9.97921 7.75289 10.8293 7.696L11.7943 7.63556V7.29422C11.7943 6.87111 11.5481 6.63644 11.0656 6.63644C10.6718 6.63644 10.4125 6.79289 10.3271 7.06667L10.3239 7.08089H9.63786L9.64114 7.056C9.72648 6.42311 10.2877 6 11.0985 6C11.9945 6 12.5 6.48356 12.5 7.29422V9.936H11.7943V9.38844H11.7385C11.5284 9.77956 11.1543 10 10.6816 10ZM10.209 8.81956C10.209 9.17511 10.488 9.38489 10.872 9.38489C11.4037 9.38489 11.7943 9.008 11.7943 8.51022V8.17956L10.9245 8.24C10.4322 8.272 10.209 8.464 10.209 8.81244V8.81956Z" fill="black"/>
<path fill-rule="evenodd" clip-rule="evenodd" d="M13 3.5C13 3.22386 13.2239 3 13.5 3H15.5C15.7761 3 16 3.22386 16 3.5C16 3.77614 15.7761 4 15.5 4H15V12H15.5C15.7761 12 16 12.2239 16 12.5C16 12.7761 15.7761 13 15.5 13H13.5C13.2239 13 13 12.7761 13 12.5C13 12.2239 13.2239 12 13.5 12H14V4H13.5C13.2239 4 13 3.77614 13 3.5Z" fill="black"/>
</svg>
