<svg width="16" height="16" viewBox="0 0 16 16" fill="none" xmlns="http://www.w3.org/2000/svg">
<path d="M4.4 8.29999C4.17909 8.29999 4 8.47907 4 8.69999V9.09999C4 9.3209 4.17909 9.49999 4.4 9.49999H4.8C5.02091 9.49999 5.2 9.3209 5.2 9.09999V8.69999C5.2 8.47907 5.02091 8.29999 4.8 8.29999H4.4Z" fill="black"/>
<path d="M6.09995 10.8C5.87904 10.8 5.69995 10.9791 5.69995 11.2V11.6C5.69995 11.8209 5.87904 12 6.09995 12H6.49995C6.72087 12 6.89995 11.8209 6.89995 11.6V11.2C6.89995 10.9791 6.72087 10.8 6.49995 10.8H6.09995Z" fill="black"/>
<path d="M9.19995 11.2C9.19995 10.9791 9.37904 10.8 9.59995 10.8H9.99995C10.2209 10.8 10.4 10.9791 10.4 11.2V11.6C10.4 11.8209 10.2209 12 9.99995 12H9.59995C9.37904 12 9.19995 11.8209 9.19995 11.6V11.2Z" fill="black"/>
<path d="M7.7999 8.29999C7.57899 8.29999 7.3999 8.47907 7.3999 8.69999V9.09999C7.3999 9.3209 7.57899 9.49999 7.7999 9.49999H8.1999C8.42082 9.49999 8.5999 9.3209 8.5999 9.09999V8.69999C8.5999 8.47907 8.42082 8.29999 8.1999 8.29999H7.7999Z" fill="black"/>
<path d="M10.8 8.69999C10.8 8.47907 10.9791 8.29999 11.2 8.29999H11.6C11.821 8.29999 12 8.47907 12 8.69999V9.09999C12 9.3209 11.821 9.49999 11.6 9.49999H11.2C10.9791 9.49999 10.8 9.3209 10.8 9.09999V8.69999Z" fill="black"/>
<path fill-rule="evenodd" clip-rule="evenodd" d="M5 2C5 1.72386 4.77614 1.5 4.5 1.5C4.22386 1.5 4 1.72386 4 2V2.5H3C1.89543 2.5 1 3.39543 1 4.5V13C1 14.1046 1.89543 15 3 15H13C14.1046 15 15 14.1046 15 13V4.5C15 3.39543 14.1046 2.5 13 2.5H12V2C12 1.72386 11.7761 1.5 11.5 1.5C11.2239 1.5 11 1.72386 11 2V2.5H5V2ZM2 13L2 6.5H14V13C14 13.5523 13.5523 14 13 14H3C2.44772 14 2 13.5523 2 13ZM2 5.5H14V4.5C14 3.94772 13.5523 3.5 13 3.5H3C2.44772 3.5 2 3.94772 2 4.5V5.5Z" fill="black"/>
</svg>
