<svg width="16" height="16" viewBox="0 0 16 16" fill="none" xmlns="http://www.w3.org/2000/svg">
<path fill-rule="evenodd" clip-rule="evenodd" d="M12.5 2H3.5C2.67157 2 2 2.67157 2 3.5V12.5C2 13.3284 2.67157 14 3.5 14H12.5C13.3284 14 14 13.3284 14 12.5V3.5C14 2.67157 13.3284 2 12.5 2ZM3.5 1C2.11929 1 1 2.11929 1 3.5V12.5C1 13.8807 2.11929 15 3.5 15H12.5C13.8807 15 15 13.8807 15 12.5V3.5C15 2.11929 13.8807 1 12.5 1H3.5Z" fill="black"/>
<path d="M5.19995 11.3L7.47223 5H8.52768L10.8 11.3H9.77067L9.20369 9.5973H6.79621L6.22487 11.3H5.19995ZM7.9607 6.10457L7.0579 8.81143H8.94201L8.03484 6.10457H7.9607Z" fill="black"/>
</svg>
