<svg width="16" height="16" viewBox="0 0 16 16" fill="none" xmlns="http://www.w3.org/2000/svg">
<path fill-rule="evenodd" clip-rule="evenodd" d="M1 3.5C1 2.11929 2.11929 1 3.5 1H12.5C13.8807 1 15 2.11929 15 3.5V12.5C15 13.8807 13.8807 15 12.5 15H3.5C2.11929 15 1 13.8807 1 12.5V3.5ZM3.5 2C2.67157 2 2 2.67157 2 3.5V12.5C2 13.3284 2.67157 14 3.5 14H12.5C13.3284 14 14 13.3284 14 12.5V3.5C14 2.67157 13.3284 2 12.5 2H3.5ZM7.31239 3.10958C7.52802 3.28208 7.56299 3.59673 7.39048 3.81236L5.59833 6.05254C5.30193 6.42305 4.75004 6.45563 4.4121 6.12259L3.46302 5.18726C3.26634 4.99343 3.26403 4.67685 3.45786 4.48017C3.65169 4.28349 3.96826 4.28118 4.16495 4.47501L4.95603 5.25464L6.60961 3.18766C6.78212 2.97203 7.09676 2.93707 7.31239 3.10958ZM7.50005 5.50001C7.50005 5.22387 7.7239 5.00001 8.00005 5.00001H12C12.2762 5.00001 12.5 5.22387 12.5 5.50001C12.5 5.77615 12.2762 6.00001 12 6.00001H8.00005C7.7239 6.00001 7.50005 5.77615 7.50005 5.50001ZM3.50005 8.50001C3.50005 8.22387 3.7239 8.00001 4.00005 8.00001H12C12.2762 8.00001 12.5 8.22387 12.5 8.50001C12.5 8.77615 12.2762 9.00001 12 9.00001H4.00005C3.7239 9.00001 3.50005 8.77615 3.50005 8.50001ZM3.50005 11.5C3.50005 11.2239 3.7239 11 4.00005 11H12C12.2762 11 12.5 11.2239 12.5 11.5C12.5 11.7762 12.2762 12 12 12H4.00005C3.7239 12 3.50005 11.7762 3.50005 11.5Z" fill="black"/>
</svg>
