<svg width="16" height="16" viewBox="0 0 16 16" fill="none" xmlns="http://www.w3.org/2000/svg">
<path fill-rule="evenodd" clip-rule="evenodd" d="M0 4.5C0 3.11929 1.11929 2 2.5 2H10.5C11.0742 2 11.6769 2.14203 12.1524 2.45897C12.6426 2.7858 13 3.30605 13 4C13 4.27614 12.7761 4.5 12.5 4.5C12.2239 4.5 12 4.27614 12 4C12 3.69395 11.8574 3.4642 11.5976 3.29103C11.3231 3.10797 10.9258 3 10.5 3H2.5C1.67157 3 1 3.67157 1 4.5V12.5C1 13.3284 1.67157 14 2.5 14H10.5C10.9258 14 11.3231 13.892 11.5976 13.709C11.8574 13.5358 12 13.306 12 13C12 12.7239 12.2239 12.5 12.5 12.5C12.7761 12.5 13 12.7239 13 13C13 13.694 12.6426 14.2142 12.1523 14.541C11.6769 14.858 11.0742 15 10.5 15H2.5C1.11929 15 0 13.8807 0 12.5V4.5ZM10.5 5.5C8.84315 5.5 7.5 6.84315 7.5 8.5C7.5 10.1569 8.84315 11.5 10.5 11.5C12.1569 11.5 13.5 10.1569 13.5 8.5C13.5 6.84315 12.1569 5.5 10.5 5.5ZM6.5 8.5C6.5 6.29086 8.29086 4.5 10.5 4.5C12.7091 4.5 14.5 6.29086 14.5 8.5C14.5 9.26567 14.2849 9.98109 13.9118 10.5891L15.8123 12.1096C16.0279 12.2821 16.0628 12.5967 15.8903 12.8124C15.7178 13.028 15.4032 13.0629 15.1875 12.8904L13.2866 11.3696C12.5663 12.0692 11.5835 12.5 10.5 12.5C8.29086 12.5 6.5 10.7091 6.5 8.5ZM2 6.5C2 6.22386 2.22386 6 2.5 6H5.5C5.77614 6 6 6.22386 6 6.5C6 6.77614 5.77614 7 5.5 7H2.5C2.22386 7 2 6.77614 2 6.5ZM2 9C2 8.72386 2.22386 8.5 2.5 8.5H4.5C4.77614 8.5 5 8.72386 5 9C5 9.27614 4.77614 9.5 4.5 9.5H2.5C2.22386 9.5 2 9.27614 2 9Z" fill="black"/>
</svg>
