<svg width="16" height="16" viewBox="0 0 16 16" fill="none" xmlns="http://www.w3.org/2000/svg">
<path fill-rule="evenodd" clip-rule="evenodd" d="M3.90377 6.77765L2.27492 8.40275C1.7487 8.92237 1.40133 9.49475 1.22939 10.1192C1.057 10.7454 1.057 11.3706 1.22939 11.9968C1.40128 12.6211 1.75097 13.1959 2.28288 13.7212C2.8094 14.2465 3.38617 14.5947 4.01252 14.769C4.63999 14.9437 5.26646 14.9437 5.89395 14.769C6.52047 14.5946 7.09407 14.2495 7.61493 13.7298L9.8405 11.5011C10.3614 10.9813 10.7075 10.4103 10.8822 9.7881C11.0571 9.16508 11.0572 8.54017 10.8821 7.91134C10.7074 7.28376 10.3588 6.70739 9.83234 6.18214C9.65702 6.00723 9.44752 5.85253 9.20296 5.71847C8.97277 5.59229 8.68548 5.48369 8.33937 5.39383L7.53613 6.20881C7.85269 6.26517 8.1272 6.3456 8.35831 6.45128C8.63412 6.5774 8.87139 6.74156 9.06885 6.94422C9.45005 7.32468 9.70756 7.74653 9.83732 8.2097C9.96674 8.67175 9.96824 9.13355 9.84157 9.59312C9.71459 10.0538 9.46108 10.4718 9.08497 10.8471L6.95891 12.9683C6.57746 13.3488 6.15578 13.6046 5.69391 13.7313C5.23362 13.8576 4.77109 13.8576 4.30823 13.7314C3.84361 13.6047 3.42048 13.349 3.03891 12.9683C2.65778 12.5823 2.39974 12.1572 2.26997 11.694C2.14054 11.232 2.13904 10.7701 2.26571 10.3106C2.39277 9.84961 2.64925 9.4315 3.03088 9.05634L4.10425 7.98546C4.01027 7.75287 3.95001 7.51278 3.92364 7.2654C3.90577 7.0977 3.8991 6.93509 3.90377 6.77765ZM8.38735 2.27121L6.16178 4.49998C5.64084 5.01972 5.29483 5.59077 5.12011 6.21297C4.94516 6.83598 4.9451 7.46088 5.12017 8.08971C5.2949 8.71729 5.64349 9.29366 6.16994 9.81891C6.34543 9.994 6.55371 10.1488 6.79556 10.2828C7.02258 10.4087 7.31072 10.5148 7.66212 10.5997L8.45824 9.79187C8.14629 9.73551 7.87445 9.65518 7.64397 9.54979C7.36814 9.42366 7.13086 9.2595 6.93339 9.05683C6.55222 8.67637 6.29472 8.25452 6.16498 7.79135C6.03553 7.32932 6.03403 6.86751 6.16071 6.40793C6.28768 5.94727 6.54119 5.52924 6.91731 5.15398L9.04283 3.03333C9.41897 2.65244 9.83971 2.39636 10.3044 2.26967C10.7673 2.14345 11.2311 2.14345 11.6941 2.26967C12.1587 2.39635 12.5818 2.6521 12.9634 3.0328C13.3445 3.41874 13.6025 3.84384 13.7323 4.30707C13.8618 4.76932 13.8619 5.23134 13.7323 5.69105C13.6026 6.15098 13.3482 6.56844 12.9728 6.94332L11.9298 8.00391C11.9709 8.11882 12.0073 8.30898 12.0392 8.50781C12.0836 8.78469 12.1032 9.06595 12.0985 9.22339L13.7273 7.5983C14.2482 7.07864 14.5941 6.5064 14.7688 5.88142C14.9439 5.2555 14.9439 4.63059 14.7688 4.00468C14.5941 3.37987 14.2456 2.80484 13.719 2.27951C13.1925 1.74882 12.616 1.39952 11.9901 1.228C11.3626 1.05601 10.736 1.05735 10.1083 1.23203C9.48181 1.40641 8.9082 1.75156 8.38735 2.27121Z" fill="black"/>
</svg>
