<svg width="16" height="16" viewBox="0 0 16 16" fill="none" xmlns="http://www.w3.org/2000/svg">
<path fill-rule="evenodd" clip-rule="evenodd" d="M4.5 1C4.77614 1 5 1.22386 5 1.5V2H11V1.5C11 1.22386 11.2239 1 11.5 1C11.7761 1 12 1.22386 12 1.5V2H13C14.1046 2 15 2.89543 15 4V5V6V8.07576C14.7012 7.7708 14.3654 7.50214 14 7.277V6H2L2 12.5C2 13.0523 2.44772 13.5 3 13.5H6.29874C6.42318 13.8521 6.58412 14.1869 6.777 14.5H3C1.89543 14.5 1 13.6046 1 12.5V6V5V4C1 2.89543 1.89543 2 3 2H4V1.5C4 1.22386 4.22386 1 4.5 1ZM14 5H2V4C2 3.44772 2.44772 3 3 3H13C13.5523 3 14 3.44772 14 4V5ZM8 11.75C8 9.95507 9.45507 8.5 11.25 8.5C13.0449 8.5 14.5 9.95507 14.5 11.75C14.5 13.5449 13.0449 15 11.25 15C9.45507 15 8 13.5449 8 11.75ZM11.25 7.5C8.90279 7.5 7 9.40279 7 11.75C7 14.0972 8.90279 16 11.25 16C13.5972 16 15.5 14.0972 15.5 11.75C15.5 9.40279 13.5972 7.5 11.25 7.5ZM11.5 10.5C11.5 10.2239 11.2761 10 11 10C10.7239 10 10.5 10.2239 10.5 10.5V12.3764C10.5 12.6415 10.6498 12.8839 10.887 13.0025L11.7764 13.4472C12.0234 13.5707 12.3237 13.4706 12.4472 13.2236C12.5707 12.9766 12.4706 12.6763 12.2236 12.5528L11.5 12.191V10.5Z" fill="black"/>
</svg>
