<svg width="16" height="16" viewBox="0 0 16 16" fill="none" xmlns="http://www.w3.org/2000/svg">
<path fill-rule="evenodd" clip-rule="evenodd" d="M1.81332 7.64686C1.14064 6.30981 0.774241 4.86905 1.15181 3.59299C1.60981 2.04511 2.59624 1.37066 3.29115 1.09104C3.93466 0.832101 4.54402 1.16487 4.86744 1.59504L6.64491 3.95918C7.13735 4.61416 7.07402 5.5344 6.49656 6.1148L6.1015 6.51186C5.90616 6.70818 5.89586 7.00558 6.05902 7.20287C6.42566 7.64621 6.93223 8.23614 7.49504 8.82699C8.00616 9.36358 8.49135 9.78543 8.86437 10.0832C9.03342 10.2182 9.29751 10.2062 9.47884 9.99972L9.84544 9.58221C10.4028 8.94749 11.348 8.84271 12.0292 9.34014L14.3945 11.0673C14.7743 11.3446 15.1015 11.8503 14.9706 12.4497C14.8891 12.8229 14.7089 13.3174 14.3122 13.7784C13.9112 14.2445 13.3134 14.6476 12.4458 14.8671C11.1297 15.2 9.71529 14.8777 8.39044 14.2311C7.05964 13.5817 5.76341 12.579 4.64691 11.4569C3.53169 10.336 2.4936 8.99901 1.81332 7.64686ZM2.78507 7.15168C3.40038 8.37469 4.36024 9.61952 5.41659 10.6812C6.47165 11.7416 7.6712 12.6619 8.8657 13.2448C10.0662 13.8307 11.2066 14.0503 12.1802 13.804C12.8463 13.6355 13.244 13.3453 13.4888 13.0608C13.7378 12.7714 13.8536 12.4582 13.9068 12.2144C13.9131 12.1857 13.9113 12.1527 13.8907 12.1091C13.8682 12.0615 13.8238 12.0049 13.7549 11.9545L11.3896 10.2274C11.1625 10.0616 10.8474 10.0965 10.6616 10.3081L10.295 10.7256C9.76929 11.3244 8.855 11.4749 8.18748 10.942C7.78322 10.6193 7.26004 10.1643 6.70875 9.58558C6.12292 8.97056 5.59887 8.36004 5.22183 7.90412C4.68492 7.25488 4.75281 6.31816 5.33181 5.73622L5.72687 5.33916C5.91936 5.14569 5.94047 4.83895 5.77632 4.62062L3.99885 2.25648C3.94088 2.17937 3.87362 2.13235 3.81826 2.11154C3.76827 2.09276 3.73043 2.09485 3.69552 2.10889C3.24696 2.28939 2.54103 2.73884 2.19573 3.90584C1.93536 4.78579 2.16217 5.91356 2.78507 7.15168Z" fill="black"/>
</svg>
